<svg width="1996" height="962" viewBox="0 0 1996 962" fill="none" xmlns="http://www.w3.org/2000/svg">
<g opacity="0.64" filter="url(#filter0_f_1739_4346)">
<g filter="url(#filter1_f_1739_4346)">
<path d="M866.667 358.225C866.667 56.1818 1263.77 94.2923 1462.32 151.103C1503.7 162.938 1577.61 216.435 1542.13 335.737C1497.79 484.865 1462.32 830.463 1536.22 1109.78C1610.12 1389.1 1103.15 1474.32 922.832 1307.44C742.511 1140.55 866.667 735.779 866.667 358.225Z" fill="url(#paint0_linear_1739_4346)"/>
</g>
<g style="mix-blend-mode:lighten" filter="url(#filter2_f_1739_4346)">
<path d="M1818 981C1818 1508.98 1358.38 1937 938.77 1937C519.16 1937 179 1508.98 179 981C179 453.016 519.16 25 938.77 25C1358.38 25 1818 453.016 1818 981Z" fill="url(#paint1_radial_1739_4346)"/>
</g>
<g filter="url(#filter3_f_1739_4346)">
<path d="M1584.04 1334.85C1410.37 1359.1 1345.86 1264.5 1322 1169.42C1317.02 1149.6 1324.46 1103.94 1394.03 1079.84C1480.98 1049.72 1709.7 984.73 1786.05 836.48C1889.3 636.015 2163.85 979.423 2127.36 1102.37C2090.88 1225.31 1809.33 1303.38 1584.04 1334.85Z" fill="url(#paint2_linear_1739_4346)"/>
</g>
</g>
<defs>
<filter id="filter0_f_1739_4346" x="0.638718" y="-153.361" width="2308.4" height="2268.72" filterUnits="userSpaceOnUse" color-interpolation-filters="sRGB">
<feFlood flood-opacity="0" result="BackgroundImageFix"/>
<feBlend mode="normal" in="SourceGraphic" in2="BackgroundImageFix" result="shape"/>
<feGaussianBlur stdDeviation="89.1806" result="effect1_foregroundBlur_1739_4346"/>
</filter>
<filter id="filter1_f_1739_4346" x="666.457" y="-46.5434" width="1043.58" height="1597.61" filterUnits="userSpaceOnUse" color-interpolation-filters="sRGB">
<feFlood flood-opacity="0" result="BackgroundImageFix"/>
<feBlend mode="normal" in="SourceGraphic" in2="BackgroundImageFix" result="shape"/>
<feGaussianBlur stdDeviation="79.2717" result="effect1_foregroundBlur_1739_4346"/>
</filter>
<filter id="filter2_f_1739_4346" x="79" y="-75" width="1839" height="2112" filterUnits="userSpaceOnUse" color-interpolation-filters="sRGB">
<feFlood flood-opacity="0" result="BackgroundImageFix"/>
<feBlend mode="normal" in="SourceGraphic" in2="BackgroundImageFix" result="shape"/>
<feGaussianBlur stdDeviation="50" result="effect1_foregroundBlur_1739_4346"/>
</filter>
<filter id="filter3_f_1739_4346" x="1249.42" y="703.654" width="952.599" height="706.384" filterUnits="userSpaceOnUse" color-interpolation-filters="sRGB">
<feFlood flood-opacity="0" result="BackgroundImageFix"/>
<feBlend mode="normal" in="SourceGraphic" in2="BackgroundImageFix" result="shape"/>
<feGaussianBlur stdDeviation="35.6723" result="effect1_foregroundBlur_1739_4346"/>
</filter>
<linearGradient id="paint0_linear_1739_4346" x1="1626.38" y1="506.169" x2="830.877" y2="632.408" gradientUnits="userSpaceOnUse">
<stop stop-color="#8624A5"/>
<stop offset="1" stop-color="#AD05E9" stop-opacity="0"/>
</linearGradient>
<radialGradient id="paint1_radial_1739_4346" cx="0" cy="0" r="1" gradientUnits="userSpaceOnUse" gradientTransform="translate(998.5 1357.1) rotate(-72.9763) scale(1273.08 1090.97)">
<stop stop-color="#5CE4F9"/>
<stop offset="0.25202" stop-color="#4E8BCE"/>
<stop offset="0.470984" stop-color="#1644A8"/>
<stop offset="0.729167" stop-color="#160A5C"/>
<stop offset="1" stop-color="#010103"/>
</radialGradient>
<linearGradient id="paint2_linear_1739_4346" x1="1615.07" y1="1118.62" x2="1894.18" y2="1280.85" gradientUnits="userSpaceOnUse">
<stop stop-color="#73FBFB"/>
<stop offset="1" stop-color="#73FBF9" stop-opacity="0"/>
</linearGradient>
</defs>
</svg>
