<svg width="16" height="16" viewBox="0 0 16 16" fill="none" xmlns="http://www.w3.org/2000/svg">
<path d="M7.40665 15.3332C7.32935 15.3331 7.25265 15.3196 7.17999 15.2932C7.03982 15.2419 6.92093 15.145 6.84236 15.0181C6.76379 14.8912 6.73009 14.7416 6.74665 14.5932L7.25999 9.86657H3.33332C3.21221 9.86675 3.09333 9.83394 2.98946 9.77165C2.8856 9.70937 2.80066 9.61996 2.74377 9.51304C2.68688 9.40612 2.66019 9.28572 2.66658 9.16478C2.67296 9.04383 2.71216 8.92691 2.77999 8.82657L8.03999 0.959902C8.12318 0.836794 8.24511 0.745005 8.38643 0.699108C8.52774 0.653211 8.68034 0.655837 8.81999 0.706569C8.95424 0.756411 9.06888 0.848158 9.14692 0.968229C9.22497 1.0883 9.26228 1.23031 9.25332 1.37324L8.73999 6.13324H12.6667C12.7878 6.13305 12.9066 6.16587 13.0105 6.22815C13.1144 6.29044 13.1993 6.37984 13.2562 6.48676C13.3131 6.59369 13.3398 6.71408 13.3334 6.83503C13.327 6.95597 13.2878 7.07289 13.22 7.17324L7.95999 15.0399C7.89884 15.1304 7.81639 15.2044 7.71991 15.2556C7.62343 15.3067 7.51586 15.3334 7.40665 15.3332Z" fill="white"/>
</svg>
