<svg width="16" height="16" viewBox="0 0 16 16" fill="none" xmlns="http://www.w3.org/2000/svg">
<path d="M7.99998 1.3335C6.68144 1.3335 5.39251 1.72449 4.29618 2.45703C3.19985 3.18957 2.34537 4.23077 1.84079 5.44894C1.3362 6.66711 1.20418 8.00756 1.46141 9.30077C1.71865 10.594 2.35359 11.7819 3.28594 12.7142C4.21829 13.6466 5.40617 14.2815 6.69938 14.5387C7.99259 14.796 9.33303 14.6639 10.5512 14.1594C11.7694 13.6548 12.8106 12.8003 13.5431 11.704C14.2757 10.6076 14.6666 9.31871 14.6666 8.00016C14.6666 7.12468 14.4942 6.25778 14.1592 5.44894C13.8241 4.6401 13.3331 3.90517 12.714 3.28612C12.095 2.66706 11.36 2.176 10.5512 1.84097C9.74237 1.50593 8.87546 1.3335 7.99998 1.3335ZM3.33332 10.5335C3.76894 10.6467 4.2166 10.7072 4.66665 10.7135C5.41971 10.7342 6.15759 10.4992 6.75998 10.0468C7.89998 9.1535 7.89998 8.00683 7.89998 7.08683C7.84942 6.55435 7.93427 6.01773 8.14665 5.52683C8.33959 5.26411 8.59666 5.05524 8.89332 4.92016C9.10528 4.7963 9.31005 4.66053 9.50665 4.5135C9.92095 4.18625 10.2427 3.75653 10.44 3.26683C11.378 3.74674 12.1528 4.49371 12.6666 5.4135C11.7133 5.54683 10.36 5.86016 10.0933 7.10016C10.0331 7.39643 10.0019 7.69785 9.99998 8.00016C10.0216 8.33806 9.95494 8.67577 9.80665 8.98016L9.73998 9.0935C9.30665 9.8135 8.81998 10.6335 9.47998 11.7602C9.55998 11.9002 9.64665 12.0335 9.73332 12.1668C9.91075 12.3718 10.0304 12.6203 10.08 12.8868C9.42431 13.1758 8.7165 13.3278 7.99998 13.3335C7.0424 13.3287 6.10376 13.0662 5.28263 12.5735C4.4615 12.0808 3.78816 11.3762 3.33332 10.5335Z" fill="white"/>
</svg>
