<svg width="123" height="105" viewBox="0 0 123 105" fill="none" xmlns="http://www.w3.org/2000/svg">
<g clip-path="url(#clip0_2024_1353)">
<line y1="-0.640625" x2="64.6262" y2="-0.640625" transform="matrix(0.788735 0.614733 -0.608599 0.793478 3.68994 33.353)" stroke="url(#paint0_linear_2024_1353)" stroke-opacity="0.3" stroke-width="1.28125"/>
<line y1="-0.640625" x2="43.5491" y2="-0.640625" transform="matrix(0.815745 0.578412 -0.572245 0.820083 36.8679 42.3066)" stroke="url(#paint1_linear_2024_1353)" stroke-opacity="0.3" stroke-width="1.28125"/>
<line y1="-0.640625" x2="76.3945" y2="-0.640625" transform="matrix(0.813856 0.581066 -0.581524 0.813529 48.6875 25.6099)" stroke="url(#paint2_linear_2024_1353)" stroke-opacity="0.7" stroke-width="1.28125"/>
<path fill-rule="evenodd" clip-rule="evenodd" d="M113.16 69.6624C106.551 73.4998 95.5691 73.3443 88.6301 69.315C85.2721 67.365 83.4765 64.8653 83.2663 62.3696C82.9445 60.8079 82.9133 59.1674 83.0528 56.461L85.4789 56.9948C86.1692 56.3057 87.0199 55.6585 88.0318 55.0709C94.6403 51.2334 105.623 51.3889 112.562 55.4183C113.766 56.1178 114.77 56.8882 115.572 57.7037L117.992 57.156C118.095 59.2044 118.149 61.3283 117.943 63.0518C117.864 65.4784 116.276 67.8528 113.16 69.6624Z" fill="url(#paint3_linear_2024_1353)"/>
<path d="M88.3713 65.2965C95.4412 69.4019 106.656 69.5712 113.419 65.6439C120.183 61.7165 119.891 55.2044 112.821 51.099C105.751 46.9935 94.5363 46.8242 87.773 50.7515C81.0096 54.6789 81.3013 61.1911 88.3713 65.2965Z" fill="url(#paint4_linear_2024_1353)" stroke="#062039" stroke-width="0.599071"/>
<path d="M112.957 65.3756C106.47 69.1427 95.6695 68.998 88.8332 65.0282C81.9969 61.0585 81.7477 54.7868 88.2349 51.0198C94.7222 47.2527 105.523 47.3974 112.359 51.3672C119.195 55.3369 119.445 61.6086 112.957 65.3756Z" fill="url(#paint5_linear_2024_1353)"/>
<path d="M112.957 65.3756C106.47 69.1427 95.6695 68.998 88.8332 65.0282C81.9969 61.0585 81.7477 54.7868 88.2349 51.0198C94.7222 47.2527 105.523 47.3974 112.359 51.3672C119.195 55.3369 119.445 61.6086 112.957 65.3756Z" fill="url(#paint6_linear_2024_1353)"/>
<path d="M112.957 65.3756C106.47 69.1427 95.6695 68.998 88.8332 65.0282C81.9969 61.0585 81.7477 54.7868 88.2349 51.0198C94.7222 47.2527 105.523 47.3974 112.359 51.3672C119.195 55.3369 119.445 61.6086 112.957 65.3756Z" stroke="#062039" stroke-width="0.469246"/>
<path d="M94.1277 62.3637C93.3459 61.9097 92.7484 61.4006 92.3352 60.8364C91.9443 60.2722 91.7601 59.6918 91.7824 59.0952C91.8159 58.505 92.0672 57.9311 92.5362 57.3734L95.6186 58.0543C95.2501 58.6315 95.144 59.1924 95.3003 59.7372C95.4679 60.2884 95.8867 60.7586 96.5567 61.1477C96.9141 61.3552 97.2771 61.5011 97.6456 61.5854C98.0142 61.6697 98.366 61.6989 98.701 61.673C99.0472 61.6406 99.3543 61.5465 99.6224 61.3909C99.9127 61.2223 100.069 61.0277 100.091 60.8072C100.125 60.5802 100.013 60.3208 99.7564 60.029L98.1147 58.1418C97.4446 57.3766 97.1542 56.6762 97.2436 56.0407C97.3441 55.3986 97.8132 54.8344 98.6508 54.3481C99.3878 53.92 100.214 53.6477 101.13 53.5309C102.057 53.4207 103.001 53.4628 103.961 53.6574C104.933 53.8584 105.843 54.2054 106.692 54.6982C107.44 55.1327 108.004 55.6094 108.384 56.1282C108.763 56.647 108.948 57.1756 108.937 57.7138C108.937 58.2586 108.724 58.7904 108.3 59.3092L105.234 58.638C105.581 58.1645 105.681 57.6976 105.536 57.2372C105.402 56.7702 105.033 56.3617 104.43 56.0115C104.084 55.8104 103.721 55.6645 103.341 55.5737C102.962 55.4829 102.593 55.457 102.236 55.4959C101.889 55.5283 101.582 55.6224 101.314 55.778C101.024 55.9466 100.862 56.1509 100.829 56.3909C100.806 56.6243 100.923 56.887 101.18 57.1788L102.805 59.0173C103.487 59.7891 103.782 60.4862 103.693 61.1088C103.615 61.7378 103.157 62.2956 102.319 62.7819C101.594 63.2035 100.756 63.4694 99.8067 63.5796C98.8685 63.6834 97.9025 63.6347 96.9085 63.4337C95.9369 63.2327 95.01 62.876 94.1277 62.3637ZM91.8327 62.743L107.663 53.5504L109.171 54.4259L93.3403 63.6185L91.8327 62.743Z" fill="#062039"/>
<path fill-rule="evenodd" clip-rule="evenodd" d="M65.8098 79.4399C56.7612 84.6943 41.7238 84.4813 32.2228 78.9642C27.6249 76.2943 25.1662 72.8714 24.8786 69.4541C24.438 67.3159 24.3953 65.0696 24.5863 61.3641L27.9083 62.095C28.8534 61.1515 30.0181 60.2654 31.4036 59.4608C40.4522 54.2065 55.4896 54.4195 64.9906 59.9365C66.64 60.8943 68.0141 61.949 69.1115 63.0656L72.4258 62.3155C72.5664 65.1205 72.6414 68.0286 72.359 70.3885C72.25 73.7111 70.0767 76.9622 65.8098 79.4399Z" fill="url(#paint7_linear_2024_1353)"/>
<path d="M31.9629 73.4059C41.5949 78.9991 56.8645 79.2259 66.0679 73.8816C75.2713 68.5374 74.8807 59.6705 65.2487 54.0774C55.6167 48.4843 40.3471 48.2575 31.1437 53.6017C21.9403 58.946 22.3309 67.8128 31.9629 73.4059Z" fill="url(#paint8_linear_2024_1353)" stroke="#062039" stroke-width="0.599071"/>
<path d="M65.606 73.6134C56.6787 78.7973 41.8232 78.5952 32.4248 73.1377C23.0265 67.6802 22.6784 59.0539 31.6057 53.8699C40.5329 48.686 55.3884 48.8882 64.7868 54.3456C74.1852 59.8031 74.5333 68.4294 65.606 73.6134Z" fill="url(#paint9_linear_2024_1353)"/>
<path d="M65.606 73.6134C56.6787 78.7973 41.8232 78.5952 32.4248 73.1377C23.0265 67.6802 22.6784 59.0539 31.6057 53.8699C40.5329 48.686 55.3884 48.8882 64.7868 54.3456C74.1852 59.8031 74.5333 68.4294 65.606 73.6134Z" fill="url(#paint10_linear_2024_1353)"/>
<path d="M65.606 73.6134C56.6787 78.7973 41.8232 78.5952 32.4248 73.1377C23.0265 67.6802 22.6784 59.0539 31.6057 53.8699C40.5329 48.686 55.3884 48.8882 64.7868 54.3456C74.1852 59.8031 74.5333 68.4294 65.606 73.6134Z" stroke="#062039" stroke-width="0.469246"/>
<path d="M39.7492 69.4457C38.6788 68.8242 37.8607 68.1271 37.2949 67.3546C36.7597 66.5821 36.5074 65.7873 36.538 64.9704C36.5838 64.1624 36.9279 63.3765 37.5702 62.6129L41.7906 63.5452C41.286 64.3355 41.1407 65.1036 41.3548 65.8495C41.5842 66.6043 42.1576 67.248 43.0751 67.7808C43.5645 68.065 44.0614 68.2647 44.5661 68.3802C45.0707 68.4956 45.5524 68.5356 46.0111 68.5001C46.4852 68.4557 46.9057 68.3269 47.2727 68.1138C47.6703 67.8829 47.8843 67.6165 47.9149 67.3146C47.9608 67.0038 47.8079 66.6487 47.4562 66.2491L45.2083 63.6651C44.2908 62.6173 43.8932 61.6583 44.0156 60.7881C44.1532 59.9091 44.7954 59.1365 45.9423 58.4706C46.9516 57.8845 48.0831 57.5116 49.337 57.3517C50.6062 57.2008 51.8984 57.2585 53.2135 57.5249C54.5438 57.8002 55.7901 58.2752 56.9523 58.9501C57.9768 59.545 58.749 60.1976 59.2689 60.908C59.7889 61.6184 60.0412 62.3421 60.0259 63.0791C60.0259 63.825 59.7353 64.5531 59.1543 65.2634L54.9567 64.3444C55.4307 63.6962 55.5684 63.0569 55.3696 62.4264C55.1861 61.7871 54.6815 61.2277 53.8557 60.7482C53.3817 60.4729 52.8847 60.2731 52.3648 60.1488C51.8449 60.0245 51.3402 59.989 50.8509 60.0423C50.3769 60.0867 49.9564 60.2154 49.5894 60.4285C49.1918 60.6594 48.97 60.9391 48.9242 61.2676C48.8936 61.5873 49.0541 61.9469 49.4059 62.3465L51.6308 64.8639C52.5636 65.9205 52.9688 66.8751 52.8465 67.7275C52.7394 68.5889 52.1125 69.3525 50.9656 70.0185C49.9716 70.5956 48.8248 70.9597 47.525 71.1107C46.2405 71.2527 44.9178 71.1861 43.5568 70.9109C42.2264 70.6356 40.9572 70.1472 39.7492 69.4457ZM36.6068 69.9652L58.2826 57.3784L60.347 58.5771L38.6712 71.1639L36.6068 69.9652Z" fill="#062039"/>
<path fill-rule="evenodd" clip-rule="evenodd" d="M78.0155 46.4121C73.199 49.209 65.1945 49.0956 60.1371 46.1589C57.6884 44.737 56.3796 42.9139 56.2276 41.094C55.9935 39.9566 55.9709 38.7612 56.0725 36.7903L57.8405 37.1794C58.3436 36.6771 58.9636 36.2054 59.7011 35.7772C64.5176 32.9803 72.5221 33.0936 77.5795 36.0304C78.4575 36.5403 79.189 37.1017 79.7732 37.6961L81.5378 37.2968C81.6128 38.7923 81.6527 40.343 81.5015 41.6003C81.4409 43.3667 80.2842 45.0947 78.0155 46.4121Z" fill="url(#paint11_linear_2024_1353)"/>
<path d="M59.8787 43.2707C65.0671 46.2835 73.3038 46.4107 78.2752 43.5239C83.2466 40.6371 83.0275 35.8542 77.8391 32.8414C72.6507 29.8285 64.414 29.7013 59.4426 32.5881C54.4712 35.475 54.6903 40.2579 59.8787 43.2707Z" fill="url(#paint12_linear_2024_1353)" stroke="#062039" stroke-width="0.599071"/>
<path d="M77.8132 43.2557C73.1179 45.9821 65.2954 45.8796 60.3406 43.0024C55.3858 40.1253 55.2093 35.5829 59.9046 32.8564C64.5999 30.1299 72.4224 30.2324 77.3772 33.1096C82.332 35.9868 82.5086 40.5292 77.8132 43.2557Z" fill="url(#paint13_linear_2024_1353)"/>
<path d="M77.8132 43.2557C73.1179 45.9821 65.2954 45.8796 60.3406 43.0024C55.3858 40.1253 55.2093 35.5829 59.9046 32.8564C64.5999 30.1299 72.4224 30.2324 77.3772 33.1096C82.332 35.9868 82.5086 40.5292 77.8132 43.2557Z" fill="url(#paint14_linear_2024_1353)"/>
<path d="M77.8132 43.2557C73.1179 45.9821 65.2954 45.8796 60.3406 43.0024C55.3858 40.1253 55.2093 35.5829 59.9046 32.8564C64.5999 30.1299 72.4224 30.2324 77.3772 33.1096C82.332 35.9868 82.5086 40.5292 77.8132 43.2557Z" stroke="#062039" stroke-width="0.469246"/>
<path d="M64.1438 41.0923C63.574 40.7614 63.1386 40.3904 62.8374 39.9791C62.5525 39.5679 62.4182 39.1449 62.4345 38.71C62.4589 38.2799 62.642 37.8616 62.9839 37.4551L65.2305 37.9514C64.9619 38.3721 64.8845 38.7809 64.9985 39.178C65.1206 39.5797 65.4258 39.9224 65.9142 40.206C66.1747 40.3573 66.4392 40.4636 66.7078 40.5251C66.9765 40.5865 67.2329 40.6078 67.4771 40.5889C67.7294 40.5652 67.9532 40.4967 68.1486 40.3833C68.3602 40.2604 68.4742 40.1186 68.4905 39.9579C68.5149 39.7924 68.4335 39.6034 68.2463 39.3907L67.0497 38.0152C66.5613 37.4575 66.3497 36.947 66.4148 36.4838C66.4881 36.0159 66.8299 35.6046 67.4404 35.2502C67.9776 34.9382 68.58 34.7397 69.2474 34.6546C69.9231 34.5742 70.6109 34.605 71.3109 34.7468C72.019 34.8933 72.6824 35.1462 73.3011 35.5054C73.8464 35.8221 74.2575 36.1695 74.5342 36.5476C74.811 36.9257 74.9453 37.311 74.9371 37.7033C74.9371 38.1003 74.7825 38.4879 74.4732 38.866L72.2388 38.3768C72.4911 38.0318 72.5644 37.6915 72.4586 37.3559C72.3609 37.0155 72.0923 36.7178 71.6528 36.4625C71.4004 36.316 71.1359 36.2097 70.8591 36.1435C70.5824 36.0773 70.3138 36.0584 70.0533 36.0868C69.801 36.1104 69.5771 36.1789 69.3818 36.2924C69.1701 36.4153 69.0521 36.5642 69.0277 36.739C69.0114 36.9092 69.0969 37.1006 69.2841 37.3133L70.4684 38.6533C70.9649 39.2158 71.1806 39.7239 71.1155 40.1777C71.0585 40.6361 70.7248 41.0426 70.1143 41.3971C69.5853 41.7044 68.9748 41.8982 68.2829 41.9785C67.5991 42.0541 66.8951 42.0187 66.1706 41.8722C65.4625 41.7256 64.7869 41.4657 64.1438 41.0923ZM62.4711 41.3688L74.0092 34.6688L75.1081 35.3069L63.57 42.0069L62.4711 41.3688Z" fill="#062039"/>
</g>
<defs>
<linearGradient id="paint0_linear_2024_1353" x1="33.9102" y1="-1.06057" x2="1.79777" y2="-0.86832" gradientUnits="userSpaceOnUse">
<stop stop-color="white" stop-opacity="0.12237"/>
<stop offset="0.476942" stop-color="white"/>
<stop offset="1" stop-color="white" stop-opacity="0"/>
</linearGradient>
<linearGradient id="paint1_linear_2024_1353" x1="22.8508" y1="-1.06057" x2="1.21102" y2="-0.973268" gradientUnits="userSpaceOnUse">
<stop stop-color="white" stop-opacity="0.12237"/>
<stop offset="0.476942" stop-color="white"/>
<stop offset="1" stop-color="white" stop-opacity="0"/>
</linearGradient>
<linearGradient id="paint2_linear_2024_1353" x1="40.0852" y1="-1.06057" x2="2.12568" y2="-0.791934" gradientUnits="userSpaceOnUse">
<stop stop-color="white" stop-opacity="0.12237"/>
<stop offset="0.476942" stop-color="white"/>
<stop offset="1" stop-color="white" stop-opacity="0"/>
</linearGradient>
<linearGradient id="paint3_linear_2024_1353" x1="82.9183" y1="67.902" x2="118.091" y2="68.44" gradientUnits="userSpaceOnUse">
<stop offset="0.0113601" stop-color="#AF82FE"/>
<stop offset="0.264769" stop-color="#4743F6"/>
<stop offset="0.63236" stop-color="#5DE5F7" stop-opacity="0.901075"/>
<stop offset="0.81041" stop-color="#59CAF7" stop-opacity="0.917802"/>
<stop offset="1" stop-color="#868BFF"/>
</linearGradient>
<linearGradient id="paint4_linear_2024_1353" x1="87.7974" y1="51.0382" x2="100.47" y2="72.8623" gradientUnits="userSpaceOnUse">
<stop stop-color="#BD37EC"/>
<stop offset="1" stop-color="#1F67FF"/>
</linearGradient>
<linearGradient id="paint5_linear_2024_1353" x1="87.7974" y1="51.0382" x2="100.47" y2="72.8623" gradientUnits="userSpaceOnUse">
<stop stop-color="#BD00FF"/>
<stop offset="1" stop-color="#1F67FF"/>
</linearGradient>
<linearGradient id="paint6_linear_2024_1353" x1="92.6239" y1="48.8883" x2="113.947" y2="54.9536" gradientUnits="userSpaceOnUse">
<stop stop-color="white" stop-opacity="0.72"/>
<stop offset="1" stop-color="white" stop-opacity="0"/>
</linearGradient>
<linearGradient id="paint7_linear_2024_1353" x1="24.402" y1="77.0296" x2="72.5618" y2="77.7662" gradientUnits="userSpaceOnUse">
<stop offset="0.0113601" stop-color="#AF82FE"/>
<stop offset="0.264769" stop-color="#4743F6"/>
<stop offset="0.63236" stop-color="#5DE5F7" stop-opacity="0.901075"/>
<stop offset="0.81041" stop-color="#59CAF7" stop-opacity="0.917802"/>
<stop offset="1" stop-color="#868BFF"/>
</linearGradient>
<linearGradient id="paint8_linear_2024_1353" x1="31.0815" y1="53.9387" x2="48.4335" y2="83.8208" gradientUnits="userSpaceOnUse">
<stop stop-color="#BD37EC"/>
<stop offset="1" stop-color="#1F67FF"/>
</linearGradient>
<linearGradient id="paint9_linear_2024_1353" x1="31.0815" y1="53.9387" x2="48.4335" y2="83.8208" gradientUnits="userSpaceOnUse">
<stop stop-color="#BD00FF"/>
<stop offset="1" stop-color="#1F67FF"/>
</linearGradient>
<linearGradient id="paint10_linear_2024_1353" x1="37.6901" y1="50.995" x2="66.8857" y2="59.2997" gradientUnits="userSpaceOnUse">
<stop stop-color="white" stop-opacity="0.72"/>
<stop offset="1" stop-color="white" stop-opacity="0"/>
</linearGradient>
<linearGradient id="paint11_linear_2024_1353" x1="55.9744" y1="45.1291" x2="81.6102" y2="45.5212" gradientUnits="userSpaceOnUse">
<stop offset="0.0113601" stop-color="#AF82FE"/>
<stop offset="0.264769" stop-color="#4743F6"/>
<stop offset="0.63236" stop-color="#5DE5F7" stop-opacity="0.901075"/>
<stop offset="0.81041" stop-color="#59CAF7" stop-opacity="0.917802"/>
<stop offset="1" stop-color="#868BFF"/>
</linearGradient>
<linearGradient id="paint12_linear_2024_1353" x1="59.5307" y1="32.8379" x2="68.7672" y2="48.7442" gradientUnits="userSpaceOnUse">
<stop stop-color="#BD37EC"/>
<stop offset="1" stop-color="#1F67FF"/>
</linearGradient>
<linearGradient id="paint13_linear_2024_1353" x1="59.5307" y1="32.8379" x2="68.7672" y2="48.7442" gradientUnits="userSpaceOnUse">
<stop stop-color="#BD00FF"/>
<stop offset="1" stop-color="#1F67FF"/>
</linearGradient>
<linearGradient id="paint14_linear_2024_1353" x1="63.0484" y1="31.271" x2="78.5893" y2="35.6916" gradientUnits="userSpaceOnUse">
<stop stop-color="white" stop-opacity="0.72"/>
<stop offset="1" stop-color="white" stop-opacity="0"/>
</linearGradient>
<clipPath id="clip0_2024_1353">
<rect width="123" height="105" fill="white"/>
</clipPath>
</defs>
</svg>
