<svg width="571" height="559" viewBox="0 0 571 559" fill="none" xmlns="http://www.w3.org/2000/svg">
<g clip-path="url(#clip0_1_2)">
<mask id="mask0_1_2" style="mask-type:luminance" maskUnits="userSpaceOnUse" x="0" y="0" width="571" height="559">
<path d="M571 0H0V559H571V0Z" fill="white"/>
</mask>
<g mask="url(#mask0_1_2)">
<g filter="url(#filter0_f_1_2)">
<g filter="url(#filter1_f_1_2)">
<path d="M-462.845 99.4898C-462.845 -154.198 -227.493 -359.853 -12.6297 -359.853C202.234 -359.853 376.415 -154.198 376.415 99.4899C376.415 353.178 202.234 558.833 -12.6298 558.833C-227.493 558.833 -462.845 353.178 -462.845 99.4898Z" fill="url(#paint0_radial_1_2)"/>
</g>
<g filter="url(#filter2_f_1_2)">
<path d="M548.826 400.619C548.826 594.699 336.158 570.211 229.824 533.707C207.66 526.102 168.081 491.727 187.079 415.068C210.826 319.245 229.824 97.1785 190.245 -82.3C150.667 -261.778 422.175 -316.535 518.747 -209.304C615.318 -102.073 548.826 158.019 548.826 400.619Z" fill="url(#paint1_linear_1_2)"/>
</g>
<g filter="url(#filter3_f_1_2)">
<path d="M4.51938 -389.243C116.085 -404.823 157.525 -344.055 172.854 -282.973C176.052 -270.242 171.274 -240.912 126.586 -225.432C70.7256 -206.083 -76.2029 -164.331 -125.25 -69.0954C-191.572 59.6818 -367.943 -160.922 -344.506 -239.9C-321.069 -318.878 -140.206 -369.032 4.51938 -389.243Z" fill="url(#paint2_linear_1_2)"/>
</g>
</g>
</g>
</g>
<defs>
<filter id="filter0_f_1_2" x="-641.206" y="-570.076" width="1390.71" height="1307.27" filterUnits="userSpaceOnUse" color-interpolation-filters="sRGB">
<feFlood flood-opacity="0" result="BackgroundImageFix"/>
<feBlend mode="normal" in="SourceGraphic" in2="BackgroundImageFix" result="shape"/>
<feGaussianBlur stdDeviation="89.1806" result="effect1_foregroundBlur_1_2"/>
</filter>
<filter id="filter1_f_1_2" x="-526.262" y="-423.27" width="966.095" height="1045.52" filterUnits="userSpaceOnUse" color-interpolation-filters="sRGB">
<feFlood flood-opacity="0" result="BackgroundImageFix"/>
<feBlend mode="normal" in="SourceGraphic" in2="BackgroundImageFix" result="shape"/>
<feGaussianBlur stdDeviation="31.7087" result="effect1_foregroundBlur_1_2"/>
</filter>
<filter id="filter2_f_1_2" x="23.5249" y="-422.52" width="706.159" height="1139.9" filterUnits="userSpaceOnUse" color-interpolation-filters="sRGB">
<feFlood flood-opacity="0" result="BackgroundImageFix"/>
<feBlend mode="normal" in="SourceGraphic" in2="BackgroundImageFix" result="shape"/>
<feGaussianBlur stdDeviation="79.2717" result="effect1_foregroundBlur_1_2"/>
</filter>
<filter id="filter3_f_1_2" x="-417.98" y="-463.06" width="662.972" height="504.804" filterUnits="userSpaceOnUse" color-interpolation-filters="sRGB">
<feFlood flood-opacity="0" result="BackgroundImageFix"/>
<feBlend mode="normal" in="SourceGraphic" in2="BackgroundImageFix" result="shape"/>
<feGaussianBlur stdDeviation="35.6723" result="effect1_foregroundBlur_1_2"/>
</filter>
<radialGradient id="paint0_radial_1_2" cx="0" cy="0" r="1" gradientUnits="userSpaceOnUse" gradientTransform="translate(-43.2151 -81.2222) rotate(108.072) scale(615.244 555.417)">
<stop stop-color="#5CE4F9"/>
<stop offset="0.25202" stop-color="#4E8BCE"/>
<stop offset="0.470984" stop-color="#1644A8"/>
<stop offset="0.729167" stop-color="#160A5C"/>
<stop offset="1" stop-color="#010103"/>
</radialGradient>
<linearGradient id="paint1_linear_1_2" x1="141.96" y1="305.556" x2="571.213" y2="248.782" gradientUnits="userSpaceOnUse">
<stop stop-color="#8624A5"/>
<stop offset="1" stop-color="#AD05E9" stop-opacity="0"/>
</linearGradient>
<linearGradient id="paint2_linear_1_2" x1="-15.4119" y1="-250.341" x2="-194.711" y2="-354.559" gradientUnits="userSpaceOnUse">
<stop stop-color="#73FBFB"/>
<stop offset="1" stop-color="#73FBF9" stop-opacity="0"/>
</linearGradient>
<clipPath id="clip0_1_2">
<rect width="571" height="559" fill="white"/>
</clipPath>
</defs>
</svg>
